<svg width="1254" height="1254" viewBox="0 0 1254 1254" fill="none" xmlns="http://www.w3.org/2000/svg">
<path d="M461.328 133.742C470.172 132.907 481.435 134.731 491.116 134.768L577.686 134.761L741.667 134.736C770.8 134.726 800.049 134.626 829.167 134.853C837.568 134.918 846.919 138.142 853.512 143.291C866.966 153.797 879.817 166.874 892.231 178.671C914.775 199.913 937.17 221.311 959.416 242.864L1068.5 348.935C1087.47 367.46 1106.68 386.038 1125.42 404.784C1127.22 406.588 1135.77 416.555 1135.93 418.484C1137.15 433.297 1136.26 451.96 1135.91 466.59L1133.07 574.458L1130.49 704.942C1130.06 739.564 1129.64 774.276 1128.89 808.888C1128.78 813.922 1126.8 820.921 1123.63 824.799C1115.24 835.069 1102.34 845.804 1092.46 854.858L1037.76 905.334C1037.24 930.195 1034.59 960.4 1033.04 985.624L1031.08 1016.48C1029.33 1043.2 1029.24 1046.17 1001.11 1047.58C946.774 1050.3 961.315 1036.92 962.087 996.823C952.643 996.646 943.196 996.638 933.752 996.8C931.422 1050.28 935.566 1047.72 880.75 1047.74C872.888 1054.85 865.082 1062.03 857.334 1069.26C831.717 1092.92 828.015 1097.78 792.964 1097.6C760.043 1096.71 725.393 1097.21 692.346 1097.21H525.69C505.747 1097.1 485.804 1097.21 465.863 1097.51C456.746 1097.65 438.066 1098.32 429.866 1097.64C400.025 1095.18 378.762 1052.41 350.904 1045.3C343.461 1044.14 335.073 1048.21 327.922 1049.18C296.138 1053.39 259.951 1050.33 235.521 1027.22C223.088 1015.45 212.129 989.497 238.464 986.355C249.606 985.026 262.288 985.147 273.577 985.34C246.011 972.889 214.615 958.994 231.354 922.141C227.094 917.977 221.785 913.207 217.216 909.376C187.697 884.621 159.595 855.622 129.719 831.511C122.435 814.045 126.077 779.738 126.492 759.996L127.924 653.206L128.584 512.835L128.569 466.325C128.569 427.517 126.949 425.994 155.374 399.464L185.005 371.793L292.603 271.061L385.723 183.672L411.812 159.001C430.373 141.41 434.934 135.788 461.328 133.742Z" fill="#2563EB"/>
<path d="M255.943 908.678C251.49 905.445 244.216 898.801 239.842 894.986L210.706 869.424L174.614 837.671C170.693 834.215 152.326 819.328 151.797 815.08C149.273 794.805 150.825 772.623 151.075 752.038L152.335 630.859C152.455 588.102 152.803 545.346 153.379 502.592L153.588 463.305C153.612 457.581 152.675 438.005 156.092 434.209C165.847 423.372 177.428 413.163 188.098 403.159L247.55 347.24L382.779 220.688C400.952 203.732 419.072 186.688 437.089 169.565C440.414 167.07 443.845 162.55 448.169 162.089C470.333 159.727 493.545 160.174 515.799 160.181L600.609 160.091L749.016 159.859C774.225 159.862 799.519 159.906 824.724 160.091C829.143 160.123 837.082 162.44 840.381 165.188C852.123 174.973 863.801 186.61 874.934 197.209L943.605 263.03L1049.6 366.335L1086.07 401.755C1092.64 408.132 1099.41 414.546 1105.8 421.07C1108.38 423.977 1110.34 425.507 1110.53 429.646C1111.16 443.154 1110.65 457.006 1110.47 470.525L1108.68 561.027C1107.77 612.914 1106.61 664.795 1105.17 716.67C1104.98 725.583 1104.07 809.482 1101.15 812.319C1072.49 840.213 1041.2 868.68 1011.66 895.802C965.677 895.885 966.686 896.093 965.204 940.236C963.937 941.55 962.91 942.364 961.525 943.534C953.46 943.629 945.394 943.648 937.329 943.591C937.957 933.634 943.333 911.013 937.335 902.97C932.862 896.971 919.167 895.754 911.759 896.191C898.689 896.962 883.935 893.519 873.003 902.668C864.905 874.787 856.97 844.135 849.437 816.086C837.167 771.551 825.255 726.919 813.701 682.194C820.482 676.214 828.924 670.197 836.218 664.593L870.08 638.322C883.734 627.723 897.443 617.195 911.207 606.739C918.54 601.166 927.16 594.608 934.661 589.457C940.637 585.354 954.025 587.363 960.937 581.616C966.351 577.114 965.139 573.804 966.066 567.333C966.353 565.333 967.793 564.794 969.45 563.578L970.207 563.891C974.713 576.247 985.217 575.089 996.375 573.81C1005.1 572.81 1015.3 571.54 1016.72 561.158L1018.24 561.344C1018.49 571.408 1020.24 572.357 1028.05 578.528C1035.05 579.026 1042.29 577.894 1049.29 577.945C1055.49 577.99 1060.93 578.664 1067.24 578.598C1067.62 570.725 1066.73 562.424 1066.23 554.534C1063.77 515.736 1056.45 477.891 1042.01 441.696C1038.79 433.641 1034.28 418.802 1025.58 415.561C1014.98 411.611 914.169 453.576 897.682 461.255C885.576 480.252 895.868 483.823 899.915 505.74C883.883 505.904 855.735 502.719 838.854 501.105C806.998 498.06 772.601 495.531 740.927 491.549C737.417 486.06 731.626 474.066 728.353 467.778L704.46 422.123L672.211 359.936C660.936 338.627 648.475 316.049 638.028 294.373C662.713 255.44 651.171 209.027 607.77 190.824C561.884 171.578 488.427 186.37 466.032 234.266C449.215 270.233 478.25 314.576 512.403 327.49C543.773 339.935 574.21 334.082 604.801 321.8C599.267 333.145 590.642 347.777 584.357 358.944L547.503 424.16L527.585 459.566C522.274 469.071 516.931 479.564 510.055 488.039C508.757 489.639 507.156 491.384 505.027 491.767C498.668 492.913 492.193 493.638 485.776 494.461C472.945 496.131 460.104 497.732 447.255 499.264C423.906 502.016 394.512 506.548 371.539 508.039C374.895 494.666 382.694 446.703 369.967 438.104C356.885 429.265 333.082 421.414 317.726 415.664C301.41 409.555 297.282 433.421 289.359 443.668C291.743 436.248 295.068 427.618 296.178 420.094C296.64 417.17 295.826 410.426 293.189 408.409C275.714 395.041 250.79 405.492 238.257 418.268C214.132 442.86 203.052 473.346 201.9 506.642C201.18 527.431 208.541 546.987 222.659 561.612C244.803 584.192 272.754 586.941 302.666 587.145C313.239 595.791 325.051 603.859 336.066 612.053C353.318 624.951 370.484 637.964 387.563 651.09C395.635 657.205 412.739 669.403 419.375 675.765C419.54 688.298 419.673 703.548 416.727 715.725C405.193 763.415 388.434 810.092 374.238 857.077C369.028 874.321 363.553 892.17 357.589 909.154C348.22 903.868 338.115 900.008 327.609 897.7C300.69 891.523 279.677 893.927 255.943 908.678Z" fill="white"/>
<path d="M405.725 254.348C441.937 252.512 466.376 280.829 447.705 315.16C450.325 315.44 457.717 316.603 460.863 318.002C472.843 323.33 499.237 332.493 505.94 343.651C506.811 345.102 506.917 348.989 506.221 349.455C499.339 354.07 466.935 375.696 462.676 377.517C451.733 374.751 440.725 372.009 429.761 369.309C425.356 368.224 406.064 361.923 403.162 364.785C405.179 372.369 433.377 390.53 433.46 400.891C433.5 405.919 421.852 416.056 417.751 420.475C406.529 433.703 403.453 442.594 386.503 431.224C353.283 408.941 321.057 385.345 288.454 362.157C278.527 355.097 277.779 350.064 285.915 340.392C314.815 307.145 359.75 259.339 405.725 254.348Z" fill="#2563EB"/>
<path d="M410.476 265.333C420.597 264.609 430.795 266.811 438.104 274.392C441.771 278.175 444.225 282.967 445.149 288.154C448.701 307.516 432.287 316.028 432.084 325.025C435.613 327.871 443.637 325.273 447.959 325.728C464.425 327.464 481.143 337.779 495.608 345.299C482.862 353.032 473.391 359.127 461.326 367.824C444.119 363.869 422.179 355.402 404.776 354.383C399.214 354.057 393.069 360.901 389.452 364.948C399.994 376.354 413.26 388.879 424.412 399.981L419.29 405.337C412.397 412.67 405.643 420.135 399.032 427.725C394.034 425.014 386.531 419.776 381.561 416.45C368.886 407.871 356.339 399.104 343.924 390.152C329.036 379.466 308.284 365.384 294.449 354.093C294.86 353.536 295.277 352.983 295.7 352.435C319.672 321.616 370.367 270.311 410.476 265.333Z" fill="white"/>
<path d="M385.496 303.818C393.065 303.067 402.278 304.367 402.703 313.526C402.934 318.506 400.336 323.681 396.875 327.082C389.757 334.079 382.363 341.547 374.071 347.088C374.071 347.088 371.441 347.258 371.188 347.274C367.033 344.085 356.701 335.092 353.743 330.533C351.664 327.329 357.467 322.698 360.416 320.271C368.443 313.666 375.286 307.12 385.496 303.818Z" fill="#2563EB"/>
<path d="M387.554 312.261C388.058 312.764 387.918 312.885 388.157 313.783C386.434 318.965 374.211 329.908 369.491 333.26L368.373 332.661C366.749 331.205 366.542 331.013 365.23 329.289C366.484 325.167 382.906 314.449 387.554 312.261Z" fill="white"/>
<path d="M675.396 183.145C687.557 182.415 728.601 187.632 738.931 192.327C741.474 193.482 744.225 195.108 744.979 197.993C748.069 209.833 725.32 273.475 729.603 283.419C730.961 286.573 733.798 288.755 736.907 290.035C741.576 291.959 746.824 292.366 751.475 290.186C754.77 288.641 757.442 286.018 759.436 283.007C763.766 276.471 766.264 268.089 769.13 260.776C774.252 248.018 779.103 235.153 783.68 222.189C787.128 212.404 788.581 208.804 799.578 212.952C812.354 217.771 825.384 223.285 838.224 227.797C855.425 233.841 858.471 238.999 851.736 256.252C849.142 262.936 845.868 270.528 842.525 276.894C832.798 295.419 825.156 314.249 807.776 326.953C780.063 347.21 750.431 345.07 719.487 334.232C698.995 327.056 684.919 318.434 672.247 300.398C655.569 276.995 662.675 252.285 665.76 226.161C667.09 215.181 668.107 203.708 669.679 192.723C670.386 187.615 671.403 185.932 675.396 183.145Z" fill="#2563EB"/>
<path d="M684.359 194.552C691.425 194.104 726.193 198.788 733.936 201.831C734.98 202.241 735.057 203.544 734.885 204.645C734.114 209.599 732.866 214.925 731.803 219.825L724.348 253.544C719.915 273.468 712.995 295.006 740.372 301.918C766.299 308.465 772.467 288.712 780.421 269.674C786.643 254.783 792.377 238.165 799.002 223.422C807.569 226.064 836.473 236.25 843.994 242.799C844.554 243.286 844.069 244.636 843.893 245.668C838.205 263.997 828.721 284.172 818.982 300.769C810.415 315.602 796.235 326.358 779.643 330.61C772.575 332.401 761.611 333.327 754.388 332.129C722.716 326.876 684.655 316.69 676.04 281.161C674.804 275.958 674.314 270.606 674.584 265.265C675.038 254.257 677.357 240.95 678.832 229.861C679.736 223.071 681.668 198.967 684.359 194.552Z" fill="white"/>
<path d="M891.138 263.398C902.95 264.962 934.906 290.198 944.796 299.384C966.304 319.925 994.112 346.162 996.811 377.301C998.878 401.14 977.32 420.928 954.356 421.912C935.705 422.711 920.435 412.422 906.992 400.037C898.66 391.903 891.004 383.296 883.029 374.806C873.906 383.509 863.219 395.091 852.545 401.787C851.099 402.694 845.669 401.69 844.328 400.626C832.625 391.346 821.104 381.52 809.479 372.091C806.602 369.756 804.386 361.99 806.766 358.701C811.413 351.846 816.785 345.16 821.933 338.578C835.91 320.57 850.47 303.021 865.59 285.961C871.773 279.089 882.55 265.751 891.138 263.398Z" fill="#2563EB"/>
<path d="M894.113 274.705C906.508 279.681 933.997 302.017 944.404 311.837C962.009 328.925 986.016 351.846 987.845 377.493C989.243 397.109 971.382 412.795 952.419 412.148C934.196 411.525 920.507 400.245 908.354 387.683C902.607 381.708 896.763 375.201 891.226 369.018C881.337 357.976 875.691 368.442 867.938 375.966C862.098 381.64 856.117 387.168 850.002 392.544C840.518 384.495 826.893 374.238 818.225 366.21C831.644 348.828 846.417 331.091 860.315 313.97C869.118 303.125 884.37 283.959 894.113 274.705Z" fill="white"/>
<path d="M921.26 324.268C924.682 324.413 929.026 328.666 931.399 331.249C937.762 338.34 946.191 346.72 945.64 357.004C945.073 367.596 935.566 369.807 926.688 367.741C924.158 366.79 918.762 364.169 917.129 362.502C914.625 359.945 900.558 348.866 900.673 346.203C900.891 341.177 917.009 328.202 921.26 324.268Z" fill="#2563EB"/>
<path d="M921.817 336.907C922.39 337.358 922.95 337.827 923.495 338.312C927.26 341.681 937.162 351.555 931.239 356.07C928.348 356.647 928.142 356.505 925.185 355.83C920.008 353.479 916.207 349.644 912.011 345.863L921.817 336.907Z" fill="white"/>
<path d="M617.739 792.244C621.763 791.567 664.744 813.41 670.716 816.37L746.532 854.098C773.638 867.465 800.677 880.968 827.647 894.608C838.688 900.216 857.721 909.371 867.773 915.43C867.223 948.591 864.074 984.853 862.755 1018.35L836.048 947.4C831.497 935.301 826.894 921.988 821.464 909.951C814.382 894.254 784.056 897.47 769.927 898.038C767.187 898.148 757.635 899.455 755.578 900.335C741.82 906.216 731.588 930.247 725.42 941.467C713.401 963.329 704.455 985.881 693.066 1007.14C685.829 993.22 684.808 989.654 671.091 981.242C686.27 971.624 696.211 961.467 698.783 942.824C700.182 932.829 697.526 922.691 691.408 914.665C672.978 890.951 621.352 898.044 594.282 896.569C584.265 896.023 572.184 896.252 562.263 896.99C555.089 897.634 547.848 903.414 546.873 910.745C542.365 944.64 543.102 979.737 540.452 1013.84C532.768 990.548 520.936 962.762 511.878 939.506C508.455 930.339 501.421 907.875 495.07 902.351C485.777 894.269 454.353 896.727 441.766 897.492C442.858 901.983 443.194 903.595 443.504 908.177C452.402 908.095 479.79 907.158 486.459 909.66C487.774 911.027 489.01 912.944 489.851 915.134C504.836 954.161 520.555 993.421 534.273 1032.82C534.64 1033.88 534.157 1034.04 533.446 1034.86C527.046 1037.33 506.628 1035.69 499.818 1034.53C497.865 1030.85 494.387 1018.64 492.467 1017.9C479.724 1013.02 450.355 1016.02 436.581 1015.65C425.58 1015.36 426.701 1030.68 422.629 1033.58C417.334 1037.35 392.426 1035.45 386.527 1035.26C405.11 995.932 421.962 954.354 438.43 914.139C444.891 898.362 429.224 891.938 420.076 907.777C414.164 918.013 409.616 929.044 404.711 939.739C396.179 958.344 387.265 976.711 379.258 995.518C377.372 969.743 362.44 961.75 341.121 951.69C350.259 951.217 363.027 951.67 370.195 945.402C380.764 936.16 369.058 921.038 362.44 913.155C373.165 907.583 384.148 902.037 395.107 896.938C469.318 862.407 543.167 825.935 617.739 792.244Z" fill="white"/>
<path d="M462.813 937.114C465.008 937.528 467.123 937.894 467.977 940.368C473.21 955.518 478.442 970.737 483.241 986.033C483.862 988.012 484.494 989.858 483.478 991.601C478.892 994.424 467.736 993.417 461.803 993.309C456.852 993.308 443.977 994.673 440.865 991.209C441.37 985.982 459.644 940.804 462.813 937.114Z" fill="#2563EB"/>
<path d="M460.043 971.011C461.25 973.621 463.252 977.453 463.053 980.305L461.737 980.868C459.08 980.747 459.086 981.196 457.377 979.888C456.974 977.531 459.023 973.64 460.043 971.011Z" fill="white"/>
<path d="M651.256 715.84C642.552 720.293 641.7 723.622 636.291 726.722L635.533 726.331C624.258 720.621 609.685 722.966 603.393 735.512C600.027 742.224 599.572 752.9 598.405 760.238C597.365 770.844 600.778 785.974 588.635 791.406C583.769 793.583 579.504 791.595 577.759 786.457C573.181 772.981 579.447 752.242 571.096 740.746C570.653 740.271 568.961 740.277 568.47 740.507C563.363 742.895 561.178 748.527 556.288 752.008C544.712 760.248 522.265 759.627 508.789 758.091C504.262 757.575 497.012 754.651 493.118 753.036C466.623 742.05 463.977 724.518 451.896 701.369C446.973 691.937 439.413 685.845 435.776 674.897C433.661 668.533 428.722 656.412 432.339 649.584C438.864 637.265 454.667 632.463 464.105 620.801C471.832 611.254 478.736 602.005 486.306 592.753C499.751 576.318 514.5 560.68 527.429 543.955C532.305 537.695 537.044 531.33 541.645 524.865C545.054 520.053 551.122 509.818 555.595 506.319C564.726 499.174 580.441 495.134 590.841 488.918C592.661 487.83 596.735 486.997 598.504 488.153C607.41 492.801 609.683 508.577 605.456 516.912C603.716 520.344 599.237 523.65 596.25 526.024C595.539 528.267 594.727 531.123 593.818 533.236C581.142 542.296 577.785 537.168 564.955 537.667C559.848 540.31 556.055 543.537 554.479 549.858C551.163 563.329 546.625 578.796 533.529 585.947C529.216 588.302 522.447 588.984 517.541 590.448C495.703 596.967 504.871 624.114 485.851 633.275C480.699 635.756 475.4 636.286 470.189 638.371C466.026 640.614 454.438 657.042 451.665 661.875C451.346 662.43 451.382 663.634 451.42 664.241C453.097 665.757 453.003 665.857 455.331 666.194C465.329 663.964 468.64 643.086 481.692 641.533C489.886 640.557 498.841 639.275 503.483 631.307C509.87 619.51 508.864 601.934 526.559 598.181C539.835 595.366 543.321 598.264 553.027 585.091C554.285 573.169 556.837 565.452 566.087 556.613C575.862 547.272 588.737 556.475 598.521 550.036C606.896 544.524 600.704 529.26 616.38 527.659C628.412 532.054 622.694 546.075 626.454 554.032C631.048 563.757 646.864 576.972 629.296 584.442C627.982 585.002 626.644 585.508 625.288 585.959C608.256 579.665 610.088 588.798 597.245 596.427C591.326 599.943 582.466 601.164 576.675 605.337C555.931 618.52 543.386 635.989 527.088 652.933C511.98 668.64 494.377 686.068 478.075 700.355C491.652 731.221 520.274 738.652 551.558 733.246C561.865 729.098 549.396 701.906 554.459 697.176C558.576 693.33 576.381 686.411 580.725 689.77C611.573 713.619 602.616 687.503 626.985 681.884C639.47 685.389 641.189 685.337 648.353 695.998C658.65 694.85 667.302 695.824 674.928 687.076C684.036 676.627 695.274 676.542 708.157 676.77C724.382 667.769 734.852 648.202 755.524 648.735C759.407 648.835 762.212 648.405 766.152 649.264L768.404 648.085C759.532 645.464 754.221 644.361 747.336 637.437C744.915 635.003 742.402 632.331 739.567 630.445C727.522 633.811 718.142 629.658 706.02 628.147C695.3 626.809 684.427 625.617 673.762 624C659.334 621.767 655.832 613.266 652.602 600.667C649.284 587.723 648.44 580.896 654.879 569.194C666.927 547.296 682.906 550.104 703.711 545.212C710.278 543.667 719.184 537.122 726.311 535.777C739.049 532.566 737.608 546.39 743.863 550.614C751.621 555.852 763.525 558.057 766.673 568.72C768.077 573.505 762.229 576.489 758.967 578.396C758.072 583.279 754.365 587.501 756.14 591.234C760.211 594.231 767.016 592.21 770.685 589.418C772.454 585.687 775.846 576.267 781.735 579.769C789.561 584.423 789.118 593.141 790.429 601.136C791.169 605.647 795.723 618.231 794.577 622.08C790.353 627.577 784.7 622.815 781.076 619.059C780.37 616.469 778.315 607.38 777.173 605.787C775.289 605.249 776.259 605.232 774.199 606.282C770.429 611.708 775.635 618.121 771.409 619.061C768.196 617.548 767.344 616.266 764.941 613.68C752.955 612.075 742.515 603.891 734.464 595.278C726.657 586.925 736.93 581.567 736.668 576.408C734.473 574.415 731.679 575.293 728.822 575.628L728.154 575.173C723.514 571.949 723.418 569.784 721.332 564.209C719.617 563.831 719.408 563.856 717.649 564.53C708.958 567.861 700.525 571.729 691.559 574.321C685.082 576.193 675.708 580.498 682.388 588.415C693.226 601.414 709.675 605.242 724.755 611.126C729.086 612.825 733.577 614.164 737.46 616.649C741.429 624.259 743.206 628.876 751.798 622.128C761.509 625.44 791.562 634.013 798.327 638.306C802.51 640.925 805.902 644.632 808.14 649.031C812.301 657.371 808.659 662.885 802.161 668.111C803.961 671.855 806.78 676.678 804.954 680.93C799.566 693.403 784.007 696.833 773.97 703.997C745.449 724.394 719.197 747.918 693.287 771.473C690.688 773.836 682.81 778.607 679.796 778.488C671.548 778.164 655.382 781.506 648.349 779.349C641.337 777.198 636.875 757.329 639.371 751.085C640.352 748.51 656.073 732.432 658.492 731.879C672.034 728.785 678.042 742.415 689.568 728.047C690.402 718.748 690.677 710.981 698.236 704.952C710.481 695.185 719.973 699.425 732.097 699.768C738.466 699.949 757.177 687.694 762.87 683.268L776.038 672.86C769.497 672.714 758.533 671.86 753.777 676.483C750.204 679.956 749.078 687.463 741.878 687.713C738.41 687.834 737.408 684.066 735.843 681.769C732.174 683.944 728.747 686.603 725.105 688.457C713.041 687.399 704.738 683.43 694.149 692.627C685.238 700.367 677.581 711.743 670.468 721.033C663.287 718.371 659.008 716.248 651.256 715.84Z" fill="white"/>
<path d="M780.579 652.282C783.847 653.248 785.78 653.991 789.212 654.16C786.256 654.897 785.671 654.375 784.893 657.575C782.893 667.501 764.128 663.566 757.607 664.641C752.848 665.426 745.674 670.463 741.56 673.144C752.09 652.003 755.909 662.548 773.99 660.79C776.739 660.523 780.759 658.395 782.424 656.024C781.864 654.37 781.291 654.531 779.342 653.343L780.579 652.282Z" fill="#2563EB"/>
<path d="M789.212 654.16C794.08 656.619 797.588 661.714 791.152 664.791C787.838 664.552 788.08 660.785 784.893 657.575C785.671 654.375 786.256 654.897 789.212 654.16Z" fill="#2563EB"/>
<path d="M768.404 648.085C772.713 649.367 776.363 650.709 780.579 652.282L779.342 653.343C773.829 651.006 771.959 650.383 766.152 649.264L768.404 648.085Z" fill="#2563EB"/>
<path d="M566.803 193.763C587.347 193.491 606.144 197.485 622.535 210.528C647.548 230.432 646.52 271.532 626.58 294.609C608.931 315.034 577.795 322.353 551.778 324.544C530.207 324.871 511.139 320.785 495.228 305.774C471.484 283.373 467.272 248.14 490.793 224.026C511.449 202.85 538.332 194.993 566.803 193.763Z" fill="white"/>
<path d="M556.339 221.843C563.45 221.184 571.66 223.264 577.776 227.347C593.442 237.804 598.469 268.348 587.989 283.639C582.531 291.603 571.944 294.645 562.555 295.96C554.957 296.282 547.77 295.271 541.634 290.472C527.262 279.232 517.938 249.945 530.329 234.544C537.318 225.859 546.128 223.29 556.339 221.843Z" fill="#2563EB"/>
<path d="M556.059 231.663C567.135 230.379 576.04 234.879 578.662 246.235C580.736 255.219 581.928 266.558 576.973 274.84C573.073 281.356 566.39 282.942 559.567 284.576C555.3 285.337 549.433 285.828 546.043 282.786C536.611 274.322 529.29 251.199 537.849 240.301C542.815 233.978 548.909 232.635 556.059 231.663Z" fill="white"/>
<path d="M273.949 414.616C275.186 414.517 276.425 414.458 277.665 414.44C281.358 414.408 284.689 414.312 287.4 416.936C288.599 422.614 276.156 455.701 273.307 462.915C268.619 464.429 264.738 465.887 260.716 468.758C246.573 478.054 242.946 501.163 253.092 514.484C264.898 529.984 304.598 534.742 320.161 522.727C328.203 516.518 332.413 506.361 333.718 496.453C334.644 489.425 333.912 477.365 324.492 476.275C314.821 475.664 313.127 487.603 307.167 493.211C299.708 492.91 291.136 491.292 283.689 490.075C287.517 479.619 307.63 432.064 315.231 427.335C321.267 426.389 343.121 436.694 350.078 439.624C355.694 441.875 360.104 443.753 365.569 446.368C368.198 477.837 364.227 516.878 347.849 544.313C338.715 559.533 323.82 570.416 306.545 574.495C286.487 579.343 259.949 575.762 242.078 565.21C190.283 534.627 221.89 426.262 273.949 414.616Z" fill="white"/>
<path d="M611.827 1004.02C613.388 1005.56 615.05 1008.9 616.358 1010.88C622.572 1020.28 628.255 1036.02 637.96 1041.83C650.382 1049.27 668.683 1047.36 682.788 1047.28C686.736 1047.26 693.664 1045.93 697.243 1046.26C711.86 1047.58 728.632 1048.72 743.098 1045.92C753.478 1043.91 754.15 1035.85 758.965 1027.78L759.37 1027.11L796.638 1027.3C798.197 1032.36 799.367 1036.48 803.22 1040.38C811.941 1049.2 830.953 1047.69 842.951 1047.83C837.081 1053.23 822.347 1067.92 815.814 1069.64C803.778 1072.81 782.429 1071.69 769.665 1071.7C753.363 1071.81 737.061 1071.83 720.759 1071.78L625.01 1072.01L493.641 1072.19C480.95 1072.19 435.418 1073.67 426.786 1070.72C419.422 1068.21 405.176 1053.23 399.003 1047.68C421.53 1047.54 429.741 1050.26 439.045 1027.34H477.053C484.072 1045.09 490.756 1047.69 510.192 1047.91C522.47 1048.05 536.908 1049.6 546.34 1040.33C550.629 1045.25 557.175 1047.42 563.677 1047.55C609.765 1048.46 609.038 1046.27 611.827 1004.02Z" fill="white"/>
<path d="M1021.87 425.62C1027.26 427.506 1029.86 436.952 1031.98 442.046C1048.66 482.019 1054.6 524.46 1057.16 567.404C1051.1 567.646 1036.95 569.23 1031.91 567.876C1029.7 561.452 1029.21 546.917 1028.6 539.139C1027.3 522.776 1024.98 506.524 1021.45 490.448C1020.88 487.859 1019.9 486.021 1017.63 484.807C1013.7 485.118 999.422 488.022 996.868 491.338C996.246 491.882 996.427 494.033 996.599 494.79C998.779 504.402 1011.86 555.645 1006.45 562.043C1001.62 564.482 988.819 564.498 983.109 564.484C981.121 554.905 979.121 538.775 977.489 528.565C975.605 520.373 974.249 511.918 971.995 503.876C969.779 495.971 959.103 500.99 953.97 502.205C950.825 502.95 946.995 504.221 944.07 505.532C946.493 514.348 958.774 565.295 956.775 570.695C955.912 573.023 954.16 574.278 951.923 575.13C945.822 577.451 934.223 579.322 928.207 576.361C926.062 575.306 924.433 573.489 923.735 571.188C922.136 565.923 922.234 558.628 921.628 553.038C920.673 544.586 919.497 536.16 918.101 527.769C916.262 516.607 914.104 505.271 910.295 494.599C908.499 489.568 905.619 484.887 903.993 479.852C903.184 477.345 902.778 474.438 904.245 472.081C906.928 467.767 1011.37 428.621 1021.87 425.62Z" fill="white"/>
<path d="M566.669 908.275C582.127 907.811 598.351 908.081 613.915 908.039C630.261 908.174 646.142 907.359 662.334 910.157C682.523 913.646 691.55 930.069 686.821 949.286C682.796 965.644 667.747 970.838 654.3 977.294C653.025 977.907 652.731 979.357 652.465 980.533C654.169 986.117 665.699 988.697 669.662 993.297C673.832 998.138 691.671 1030.12 689.09 1034.11C684.305 1036.24 674.978 1035.46 669.402 1035.36C665.817 1035.36 659.679 1036.07 656.466 1034.45C647.868 1030.13 634.678 993.863 619.365 985.34C615.731 983.318 609.949 981.769 605.862 983.22C594.742 987.168 601.58 1021 596.264 1031.35C595.312 1033.2 593.895 1034.32 591.895 1034.92C586.912 1036.41 566.618 1036.37 562.478 1034.22C561.226 1032.45 561.29 1031.86 561.348 1029.58C562.343 990.298 562.261 950.829 564.012 911.608C564.043 910.902 566.096 908.857 566.669 908.275Z" fill="white"/>
<path d="M604.753 927.836C613.596 927.459 621.408 927.951 630.167 928.552C648.457 929.807 658.654 947.209 640.987 958.97C633.662 962.441 606.083 966.565 600.396 960.682C598.574 955.65 598.765 936.483 600.681 930.758C601.373 928.692 602.955 928.494 604.753 927.836Z" fill="#2563EB"/>
<path d="M612.572 939.729C617.617 939.675 630.314 938.254 631.971 944.131C631.467 946.329 631.164 946.376 629.633 948.001C622.665 950.788 619.806 950.445 612.341 950.589L612.572 939.729Z" fill="white"/>
<path d="M770.664 908.942C779.563 908.847 801.827 907.572 808.827 910.89C810.448 913.151 811.818 915.809 812.806 918.412C821.261 940.672 829.305 963.215 837.552 985.545C841.696 996.579 845.729 1007.65 849.649 1018.77C851.08 1022.81 854.24 1031.19 854.924 1035.06C851.372 1038.12 831.654 1036.49 826.323 1036.19C815.492 1035.57 817.164 1025.66 813.987 1019.31C812.044 1015.43 798.258 1015.7 793.934 1015.67C781.029 1015.6 767.267 1014.91 754.533 1016.32C747.817 1017.07 745.325 1029.02 741.959 1034.66C734.604 1036.51 714 1036.34 706.212 1035.34C718.862 1008.24 731.367 981.076 743.726 953.844C748.483 943.345 759.082 918.156 764.184 909.744C765.878 908.789 768.591 908.986 770.664 908.942Z" fill="white"/>
<path d="M784.55 937.277C785.701 937.442 787.33 937.659 788.239 938.422C790.025 939.919 803.799 983.563 804.589 988.256C804.904 990.132 804.977 990.266 803.88 991.806C798.871 994.474 788.229 993.476 782.037 993.356C776.947 993.438 764.941 994.409 761.549 991.602C761.263 987.785 781.104 940.576 784.55 937.277Z" fill="#2563EB"/>
<path d="M781.013 971.069C782.358 973.109 784.432 978.236 783.596 980.593L781.606 981.282C779.513 981.054 779.218 981.381 777.806 980.288C777.406 977.795 779.799 973.756 781.013 971.069Z" fill="white"/>
<path d="M891.69 908.774C897.82 908.574 920.967 906.902 924.827 910.599C929.65 915.217 922.217 947.804 924.164 954.885C924.372 955.639 924.843 956.43 925.585 956.746C927.674 957.637 972.966 957.383 978.452 956.97C980.427 956.822 982.113 956.518 983.903 955.65C989.274 949.187 982.706 915.753 989.219 909.788C994.43 907.823 1018.42 908.492 1024.7 909.13C1024.81 913.816 1024.51 918.981 1024.23 923.677C1022.13 958.085 1019.98 992.499 1017.77 1026.9C1017.57 1030.03 1017.54 1032.43 1015.01 1034.52C1011.16 1035.71 984.958 1038.48 982.93 1032.83C980.846 1026.31 988.672 986.936 979.558 985.905C971.416 984.984 931.718 984.404 925.059 986.465C915.279 989.493 924.194 1029.47 915.961 1034.64C912.606 1036.75 888.818 1036.43 885.029 1034.89C883.774 1033.27 883.968 1030.63 884.096 1028.51C886.406 990.3 886.477 951.931 888.859 913.743C889.002 911.458 890.114 910.273 891.69 908.774Z" fill="white"/>
<path d="M292.271 905.82C305.664 903.845 332.954 906.581 344.803 914.054C354.294 920.04 358.413 927.166 360.948 937.603C352.512 940.347 335.113 940.919 325.866 941.367C324.556 938.797 323.267 936.175 321.368 933.962C313.158 924.276 295.543 922.637 286.089 931.362C279.999 936.982 280.361 944.403 288.023 948.271C293.757 951.166 299.107 951.771 305.205 953.335C323.912 958.082 343.454 961.079 358.42 974.289C371.464 985.803 369.866 1012.56 358.208 1024.4C345.202 1037.62 320.689 1039.73 302.948 1039.71C290.429 1039.84 274.102 1038.11 262.696 1032.62C252.046 1027.44 243.937 1018.19 240.208 1006.95C239.285 1004.18 238.607 1002.31 239.903 999.753C245.225 996.956 269.1 997.286 276.004 997.571C277.407 1001.79 278.724 1005.36 281.395 1008.97C287.741 1017.56 297.507 1020.42 307.74 1019.64C317.988 1018.86 331.025 1012.52 329.369 1000.46C327.828 989.247 312.512 986.079 303.56 983.603C289.501 979.702 274.809 976.671 262.152 969.275C252.819 963.696 246.326 956.985 244.992 945.8C242.743 926.953 257.886 914.32 274.271 909.258C280.291 907.398 285.984 906.597 292.271 905.82Z" fill="white"/>
<path d="M636.995 640.517C648.042 640.924 643.814 657.846 641.357 664.1C636.363 676.815 624.788 668.298 615.6 670.143C610.854 671.025 608.616 675.227 605.626 677.984C588.2 694.05 587.289 666.133 564.427 676.693L563.637 677.065C560.747 678.804 556.11 682.227 552.94 681.032C549.49 676.384 549.124 662.582 552.101 657.556C554.34 653.775 562.242 657.089 566.667 656.364C575.508 654.916 583.203 650.628 592.103 649.691C599.058 648.926 608.692 652.263 614.962 650.293C623.911 647.483 627.036 643.127 636.995 640.517Z" fill="white"/>
<path d="M275.706 472.92C278.157 475.395 255.165 500.44 291.567 501.757C309.54 502.408 312.095 508.096 321.504 488.139C320.179 497.049 319.101 502.332 313.549 509.6C312.473 510.628 310.692 512.015 309.495 513.003C300.496 514.58 271.893 518.007 264.792 512.796C248.811 501.07 254.634 477.253 275.706 472.92Z" fill="white"/>
<path d="M283.299 988.823C286.471 989.686 291.533 990.885 294.259 992.586C297.8 994.795 308.141 1001.91 308.422 1005.88C288.521 1011.17 293.17 998.456 283.299 988.823Z" fill="white"/>
<path d="M1008.27 496.102L1010.24 496.697C1012.08 499.426 1014.63 514.442 1012.59 517.424C1010.73 514.748 1008.14 503.243 1007.31 499.468C1006.82 497.273 1007.1 497.63 1008.27 496.102Z" fill="white"/>
<path d="M1016.72 561.158C1016.58 558.03 1014.88 537.245 1015.75 536.233C1017.65 540.688 1018.11 555.819 1018.24 561.344L1016.72 561.158Z" fill="#E2E9FC"/>
</svg>
